<?xml version="1.0" standalone="no"?><!DOCTYPE svg PUBLIC "-//W3C//DTD SVG 1.1//EN" "http://www.w3.org/Graphics/SVG/1.1/DTD/svg11.dtd"><svg t="1596163425180" class="icon" viewBox="0 0 1024 1024" version="1.1" xmlns="http://www.w3.org/2000/svg" p-id="8429" width="24" height="24" xmlns:xlink="http://www.w3.org/1999/xlink"><defs><style type="text/css"></style></defs><path d="M529.749333 348.117333l248.32 228.949334c19.626667 18.090667 12.970667 32.725333-14.762666 32.725333h-150.784v239.957333c0 25.557333-22.485333 46.250667-50.261334 46.250667h-100.522666c-27.733333 0-50.261333-20.693333-50.261334-46.250667v-239.957333H260.693333c-27.733333 0-34.346667-14.677333-14.72-32.725333l248.277334-228.949334a26.624 26.624 0 0 1 35.498666 0zM804.565333 128C831.488 128 853.333333 147.114667 853.333333 170.666667s-21.845333 42.666667-48.768 42.666666H219.434667C192.512 213.333333 170.666667 194.218667 170.666667 170.666667s21.845333-42.666667 48.768-42.666667h585.130666z" p-id="8430" fill="#ffffff"></path></svg>