<svg xmlns="http://www.w3.org/2000/svg" viewBox="0 0 1024 1024"><path fill="currentColor" d="M730.96 128c90.199 0 163.56 72.526 165.018 162.313l.022 2.726v437.922c0 90.198-72.526 163.559-162.313 165.017l-2.726.022H293.039c-90.198 0-163.559-72.526-165.017-162.313L128 730.96V293.039c0-90.198 72.526-163.559 162.313-165.017l2.726-.022h437.922zm-93.178 235.496l-180.64 180.639-70.924-70.925c-21.423-21.423-56.156-21.423-77.58 0-21.422 21.423-21.422 56.157 0 77.58l109.715 109.714c21.423 21.423 56.157 21.423 77.58 0L715.36 441.076c21.423-21.423 21.423-56.157 0-77.58-21.423-21.423-56.156-21.423-77.58 0z"/></svg>