<svg width="1024" height="1024" xmlns="http://www.w3.org/2000/svg" viewBox="0 0 1024 1024"><path d="M512 64c247.424 0 448 200.576 448 448S759.424 960 512 960 64 759.424 64 512 264.576 64 512 64zm0 64c-212.077 0-384 171.923-384 384s171.923 384 384 384 384-171.923 384-384-171.923-384-384-384zm183.294 160l45.254 45.255-180.974 181.064 180.974 180.975-45.254 45.254-181.02-181.019-181.02 181.02L288 695.293l181.02-181.02L288 333.254 333.255 288l181.064 181.065L695.294 288z" fill="currentColor"/></svg>