<svg xmlns="http://www.w3.org/2000/svg" width="1024" height="1024" viewBox="0 0 1024 1024"><g fill="none" fill-rule="evenodd"><path fill-opacity="0" fill="currentColor" d="M0 0h1024v1024H0z"/><path d="M448 704c-141.184 0-256-114.816-256-256s114.816-256 256-256 256 114.816 256 256-114.816 256-256 256zm512 165.504L760.768 670.272C805.44 607.488 832 530.88 832 448c0-212.032-171.968-384-384-384S64 235.968 64 448s171.968 384 384 384c82.88 0 159.488-26.56 222.272-71.232L869.504 960 960 869.504z" fill="currentColor" fill-rule="nonzero"/></g></svg>