<svg viewBox="0 0 1024 1024" xmlns="http://www.w3.org/2000/svg" width="16" height="16"><defs><style/></defs><path d="M512 128c23.552 0 42.688 19.008 42.688 42.368l-.064 298.944h299.008c21.248 0 38.848 15.68 41.92 36.352L896 512a42.56 42.56 0 01-42.368 42.688l-299.008-.064v299.008a42.368 42.368 0 01-36.288 41.92L512 896a42.56 42.56 0 01-42.688-42.368V554.624H170.368a42.368 42.368 0 01-41.92-36.288L128 512c0-23.552 19.008-42.688 42.368-42.688h298.944v-298.88c0-21.312 15.68-38.976 36.352-41.984L512 128z"/></svg>