<svg xmlns="http://www.w3.org/2000/svg" viewBox="0 0 1024 1024"><path fill="currentColor" fill-rule="evenodd" d="M529.75 348.113l248.292 228.933c19.622 18.093 13.016 32.748-14.738 32.748H612.517v239.955c0 25.548-22.495 46.251-50.243 46.251H461.723c-27.745 0-50.245-20.706-50.245-46.25V609.794H260.695c-27.758 0-34.355-14.663-14.739-32.748l248.292-228.933c9.802-9.039 25.698-9.04 35.502 0zM804.58 128c26.908 0 48.753 19.103 48.753 42.667 0 23.569-21.826 42.666-48.753 42.666H219.42c-26.91 0-48.753-19.103-48.753-42.666 0-23.57 21.826-42.667 48.753-42.667h585.16z"/></svg>