<svg viewBox="0 0 1024 1024" xmlns="http://www.w3.org/2000/svg" width="16" height="16"><defs><style/></defs><path d="M810.688 469.312c0-72.512-55.488-128-128-128-72.576 0-128 55.488-128 128 0 55.488 34.112 102.4 85.312 119.488V640c0 46.912-38.4 85.312-85.312 85.312H460.8c-12.8-38.4-42.688-64-81.088-76.8V375.488c55.488-17.088 89.6-64 89.6-119.488 0-72.512-55.424-128-128-128-72.512 0-128 55.488-128 128 0 55.488 38.4 102.4 85.376 119.488v273.024c-51.2 17.088-85.376 64-85.376 119.488 0 72.512 55.488 128 128 128 55.488 0 102.4-34.112 119.488-85.312h93.888c93.824 0 170.624-76.8 170.624-170.688v-51.2c51.2-17.088 85.376-64 85.376-119.488zm-469.376-256C366.912 213.312 384 230.4 384 256s-17.088 42.688-42.688 42.688S298.688 281.6 298.688 256s21.312-42.688 42.624-42.688zm0 597.376c-25.6 0-42.624-17.088-42.624-42.688s17.024-42.688 42.624-42.688S384 742.4 384 768s-17.088 42.688-42.688 42.688zM682.688 512c-25.6 0-42.688-17.088-42.688-42.688s17.088-42.624 42.688-42.624 42.624 17.024 42.624 42.624S708.288 512 682.688 512z" fill="currentColor"/></svg>