<svg xmlns="http://www.w3.org/2000/svg" viewBox="0 0 1024 1024"><path d="M512 64c247.4 0 448 200.6 448 448S759.4 960 512 960 64 759.4 64 512 264.6 64 512 64zm177.293 270.708c-19.61-19.61-51.305-19.61-70.915 0L512.006 441.087 405.584 334.708c-19.56-19.61-51.305-19.61-70.915 0-19.559 19.56-19.559 51.309 0 70.92l106.372 106.378-106.372 106.38c-19.559 19.61-19.559 51.308 0 70.919 9.83 9.78 22.619 14.695 35.458 14.695 12.839 0 25.677-4.915 35.457-14.695l106.422-106.38 106.372 106.38c9.78 9.78 22.619 14.695 35.458 14.695 12.839 0 25.677-4.915 35.457-14.695 19.61-19.611 19.61-51.31 0-70.92L582.921 512.006l106.372-106.379c19.61-19.61 19.61-51.359 0-70.919z" fill="currentColor" fill-rule="evenodd"/></svg>