<svg xmlns="http://www.w3.org/2000/svg" viewBox="0 0 1024 1024"><path fill="currentColor" fill-rule="evenodd" d="M224.266 171.66l287.77 287.83 288.52-288.532c14.513-14.513 38.043-14.513 52.557 0 13.183 13.184 14.512 34.056 3.339 48.738l-4.041 4.57-287.83 287.77 288.532 288.52c13.183 13.183 14.512 34.055 3.339 48.737l-4.041 4.57c-12.482 12.433-33.354 13.762-48.036 2.589l-4.57-4.041-287.77-287.83-288.52 288.532c-13.183 13.183-34.055 14.512-48.737 3.339l-4.57-4.041c-12.433-12.482-13.763-33.354-2.589-48.036l4.041-4.57 287.83-287.77-288.532-288.52c-13.183-13.183-14.513-34.055-3.339-48.737l4.041-4.57c12.482-12.433 33.354-13.763 48.036-2.589l4.57 4.041z"/></svg>