<svg viewBox="0 0 1024 1024" xmlns="http://www.w3.org/2000/svg" width="16" height="16"><defs><style/></defs><path d="M224.256 171.648L512.064 459.52l288.512-288.576a37.12 37.12 0 0155.872 48.768l-4.032 4.544-287.808 287.808L853.12 800.576a37.12 37.12 0 013.328 48.704l-4.032 4.608a36.992 36.992 0 01-48 2.56l-4.608-4.032L512 564.608 223.488 853.12a37.12 37.12 0 01-48.704 3.328l-4.608-4.032a36.992 36.992 0 01-2.56-48l4.032-4.608L459.52 512 170.88 223.488a37.12 37.12 0 01-3.328-48.704l4.032-4.608a36.992 36.992 0 0148-2.56l4.608 4.032z"/></svg>