<svg viewBox="0 0 1024 1024" xmlns="http://www.w3.org/2000/svg" width="200" height="200"><defs><style/></defs><path d="M943.104 472.064L551.872 80.896a57.664 57.664 0 00-81.6 0l-81.152 81.28 103.04 103.04a68.48 68.48 0 0186.784 87.36l99.328 99.264a68.48 68.48 0 0170.912 113.408 68.672 68.672 0 01-112-74.688l-92.8-92.608v243.776a68.672 68.672 0 11-56.448-1.984V393.6a68.672 68.672 0 01-37.248-90.048l-101.632-101.44-268.16 268.224a57.728 57.728 0 000 81.664l391.168 391.168a57.728 57.728 0 0081.6 0L943.04 553.792a57.728 57.728 0 000-81.6" fill="currentColor"/></svg>