<svg xmlns="http://www.w3.org/2000/svg" viewBox="0 0 1024 1024"><path fill="currentColor" fill-rule="evenodd" d="M943.107 472.092L551.88 80.9c-22.51-22.532-59.05-22.532-81.588 0l-81.233 81.244L492.102 265.19c23.955-8.088 51.412-2.665 70.498 16.425 19.185 19.21 24.569 46.902 16.278 70.938l99.314 99.318c24.028-8.28 51.75-2.93 70.935 16.29 26.823 26.817 26.823 70.27 0 97.093-26.827 26.832-70.278 26.832-97.12 0-20.169-20.185-25.157-49.82-14.942-74.671l-92.622-92.626-.007 243.743a69.249 69.249 0 0118.16 12.984c26.815 26.813 26.815 70.258 0 97.116-26.823 26.812-70.294 26.812-97.089 0-26.82-26.856-26.82-70.3 0-97.116 6.628-6.617 14.297-11.625 22.48-14.981V393.695a67.747 67.747 0 01-22.485-14.983c-20.314-20.299-25.207-50.115-14.788-75.062l-101.58-101.6-268.23 268.235c-22.538 22.549-22.538 59.089 0 81.622l391.201 391.194c22.523 22.532 59.05 22.532 81.604 0l389.393-389.346c22.53-22.542 22.53-59.094 0-81.63"/></svg>