<svg xmlns="http://www.w3.org/2000/svg" viewBox="0 0 1024 1024"><path fill="currentColor" fill-rule="evenodd" d="M789.345 895.94c7.855 0 14.222-6.366 14.222-14.22V650.625c0-17.672 14.325-31.998 31.997-31.998s31.998 14.326 31.998 31.998V881.72c0 43.198-35.019 78.216-78.217 78.216H627.58c-17.672 0-31.998-14.326-31.998-31.997V682.623h-167.1v245.316c0 17.671-14.326 31.997-31.998 31.997H234.718c-43.198 0-78.217-35.018-78.217-78.216V567.075h-60.44c-28.092 0-42.549-33.61-23.229-54.004l415.97-439.08c12.622-13.321 33.838-13.321 46.459 0l415.97 439.08c12.154 12.83 11.606 33.082-1.223 45.235-12.828 12.154-33.08 11.607-45.235-1.222l-392.741-414.56-341.58 360.556h18.047c17.672 0 31.998 14.326 31.998 31.998V881.72c0 7.854 6.367 14.22 14.221 14.22h129.769V673.735c0-30.434 24.672-55.107 55.107-55.107H604.47c30.434 0 55.107 24.673 55.107 55.107v222.207h129.768z"/></svg>