<svg viewBox="0 0 1024 1024" xmlns="http://www.w3.org/2000/svg" width="16" height="16"><defs><style/></defs><path d="M789.376 896c7.808 0 14.208-6.4 14.208-14.272V650.624a32 32 0 1164 0v231.04c0 43.264-35.072 78.272-78.208 78.272H627.584a32 32 0 01-32-32V682.624H428.48v245.312a32 32 0 01-32 32H234.688a78.208 78.208 0 01-78.208-78.208V567.04H96.064a32 32 0 01-23.232-54.016l416-439.04a32 32 0 0146.4 0l416 439.04a32 32 0 11-46.464 43.968L512 142.528 170.432 503.04h18.048a32 32 0 0132 32v346.624c0 7.872 6.4 14.208 14.208 14.208H364.48V673.664c0-30.4 24.704-55.04 55.104-55.04H604.48c30.4 0 55.04 24.64 55.04 55.04V896h129.856z"/></svg>