<svg xmlns="http://www.w3.org/2000/svg" viewBox="0 0 1024 1024"><path fill="currentColor" fill-rule="evenodd" d="M512 64c247.445 0 448 200.555 448 448S759.445 960 512 960 64 759.445 64 512 264.555 64 512 64zm0 348.444l-6.795.456c-24.173 3.273-42.61 23.778-42.977 48.711l-.006.757v248.597c0 26.79 21.843 49.466 48.955 49.917l.823.007 6.795-.456c24.173-3.273 42.61-23.777 42.977-48.71l.006-.758V462.368c0-26.79-21.843-49.466-48.955-49.917l-.823-.007zm0-149.333c-27.492 0-49.778 22.286-49.778 49.778 0 27.491 22.286 49.778 49.778 49.778 27.492 0 49.778-22.287 49.778-49.778 0-27.492-22.286-49.778-49.778-49.778z"/></svg>