<svg xmlns="http://www.w3.org/2000/svg" viewBox="0 0 1024 1024"><path fill="currentColor" fill-rule="evenodd" d="M512 128c23.564 0 42.667 19.104 42.667 42.66l-.001 298.673h298.966c23.148 0 41.988 18.567 42.368 41.957v.71c0 23.316-18.609 42.284-41.668 42.66l-.7.007-298.966-.001V853.34c0 23.325-18.717 42.278-41.96 42.66H512c-23.564 0-42.667-19.104-42.667-42.66V554.666H170.368c-23.148 0-41.988-18.525-42.368-41.955V512c0-23.316 18.609-42.284 41.668-42.66l.7-.007h298.965V170.66c0-23.325 18.718-42.278 41.961-42.66H512z"/></svg>