<svg xmlns="http://www.w3.org/2000/svg" viewBox="0 0 1024 1024"><path fill="currentColor" fill-rule="evenodd" d="M474.667 64c226.805 0 410.666 183.862 410.666 410.667 0 100.826-36.336 193.167-96.627 264.64l-.01-.01a37.219 37.219 0 0110.54 7.15l.496.488 149.333 149.333c14.58 14.58 14.58 38.218 0 52.797-14.433 14.434-37.746 14.578-52.357.433l-.44-.433-149.333-149.333a37.25 37.25 0 01-7.638-11.035l.01.009c-71.473 60.291-163.814 96.627-264.64 96.627C247.862 885.333 64 701.472 64 474.667S247.862 64 474.667 64zm0 74.667c-185.568 0-336 150.432-336 336 0 185.567 150.432 336 336 336 185.567 0 336-150.433 336-336 0-185.568-150.433-336-336-336z"/></svg>