<svg xmlns="http://www.w3.org/2000/svg" viewBox="0 0 1024 1024"><path fill="currentColor" fill-rule="evenodd" d="M748.39 653.847c26.146 26.148 26.146 68.412 0 94.56C735.352 761.446 718.234 768 701.115 768c-17.118 0-34.237-6.554-47.276-19.594l-141.83-141.839-141.896 141.84C357.072 761.446 339.954 768 322.836 768c-17.119 0-34.17-6.554-47.277-19.594-26.079-26.147-26.079-68.411 0-94.559l141.83-141.839-141.83-141.838c-26.079-26.148-26.079-68.479 0-94.56 26.146-26.147 68.474-26.147 94.553 0l141.896 141.84 141.83-141.84c26.146-26.147 68.407-26.147 94.553 0 26.145 26.081 26.145 68.412 0 94.56L606.56 512.008l141.83 141.839z"/></svg>