<svg xmlns="http://www.w3.org/2000/svg" viewBox="0 0 1024 1024"><path fill="currentColor" fill-rule="evenodd" d="M512 960c247.445 0 448-200.555 448-448S759.445 64 512 64 64 264.555 64 512s200.555 448 448 448zm0-348.444l-6.795-.456c-22.197-3.005-39.559-20.541-42.532-42.694l-.45-6.774V313.035c0-24.806 18.726-46.084 43.022-49.458l6.755-.466 6.795.456c22.197 3.005 39.559 20.54 42.532 42.693l.45 6.775v248.597c0 24.806-18.726 46.084-43.022 49.458l-6.755.466zm0 149.333c-27.492 0-49.778-22.286-49.778-49.778 0-27.491 22.286-49.778 49.778-49.778 27.492 0 49.778 22.287 49.778 49.778 0 27.492-22.286 49.778-49.778 49.778z"/></svg>