<svg viewBox="0 0 1024 1024" xmlns="http://www.w3.org/2000/svg" width="16" height="16"><defs><style/></defs><path d="M421.504 218.56a127.872 127.872 0 01180.992 0l203.008 202.944a127.872 127.872 0 010 181.056L602.496 805.44a127.872 127.872 0 01-180.992 0L218.496 602.56a127.872 127.872 0 010-181.056zM512 640l-6.272.448a42.688 42.688 0 00-36.416 42.24l.512 6.272A42.688 42.688 0 00512 725.312l6.272-.448a42.688 42.688 0 0036.416-42.24l-.512-6.272A42.688 42.688 0 00512 640zm0-341.312l-6.272.448a42.688 42.688 0 00-36.416 42.24v213.312c0 23.552 19.136 42.624 42.688 42.624l6.272-.448a42.688 42.688 0 0036.416-42.24V341.376A42.688 42.688 0 00512 298.688z"/></svg>