<svg viewBox="0 0 1024 1024" xmlns="http://www.w3.org/2000/svg" width="16" height="16"><defs><style/></defs><path d="M452.096 239.68c33.024-62.336 86.848-62.592 120 0l264 498.624c33.024 62.336 2.432 113.344-68.544 113.344H256.64c-70.848 0-101.696-50.752-68.544-113.28zm60.032 432.96l-6.336.448a42.688 42.688 0 00-36.352 42.24l.448 6.272a42.688 42.688 0 0042.24 36.352l6.272-.448a42.688 42.688 0 0036.352-42.24l-.448-6.272a42.688 42.688 0 00-42.24-36.352zm0-341.312l-6.336.448a42.688 42.688 0 00-36.352 42.24v213.312c0 23.552 19.136 42.624 42.688 42.624l6.272-.448a42.688 42.688 0 0036.352-42.24V374.016a42.688 42.688 0 00-42.624-42.624z"/></svg>