<?xml version="1.0" standalone="no"?><!DOCTYPE svg PUBLIC "-//W3C//DTD SVG 1.1//EN" "http://www.w3.org/Graphics/SVG/1.1/DTD/svg11.dtd"><svg t="1597198145478" class="icon" viewBox="0 0 1024 1024" version="1.1" xmlns="http://www.w3.org/2000/svg" p-id="7652" xmlns:xlink="http://www.w3.org/1999/xlink" width="16" height="16"><defs><style type="text/css"></style></defs><path d="M768 921.6H76.8A76.8 76.8 0 0 1 0 844.8v-768A76.8 76.8 0 0 1 76.8 0h614.4A76.8 76.8 0 0 1 768 76.8V358.4l-307.2 307.2h230.4a76.8 76.8 0 0 0 76.8-76.8V921.6zM563.2 128H204.8V204.8h358.4V128z" fill="#083FBF" p-id="7653"></path><path d="M1024 358.4v665.6H460.8v-358.4h230.2976a76.8 76.8 0 0 0 76.8-76.8V358.4H1024z" fill="#C2D6FF" p-id="7654"></path></svg>