<svg xmlns="http://www.w3.org/2000/svg" viewBox="0 0 1024 1024"><path d="M512 127.99c23.564 0 42.667 19.104 42.667 42.658l-.001 298.652h298.966c23.148 0 41.988 18.566 42.362 41.953l.006.71c0 23.55-18.987 42.664-42.368 42.664H554.666v298.652c0 23.323-18.717 42.275-41.96 42.652l-.706.005c-23.564 0-42.667-19.102-42.667-42.657V554.627H170.368c-23.148 0-41.988-18.524-42.362-41.952l-.006-.711c0-23.55 18.987-42.664 42.368-42.664h298.965V170.648c0-23.323 18.718-42.275 41.961-42.651l.706-.006z" fill="currentColor" fill-rule="evenodd"/></svg>