<?xml version="1.0" encoding="UTF-8"?>
<svg width="16" height="16" viewBox="0 0 24 24" version="1.1" xmlns="http://www.w3.org/2000/svg" xmlns:xlink="http://www.w3.org/1999/xlink">
    <title>backtop</title>
    <g id="控件" stroke="none" stroke-width="1" fill="none" fill-rule="evenodd">
        <g id="2.导航/8.BackTop返回顶部/亮色/圆形" transform="translate(-8.000000, -8.000000)">
            <g id="编组" transform="translate(8.000000, 8.000000)">
                <path d="M12.4160224,8.15889774 L18.2353536,13.5245165 C18.6952492,13.9485796 18.540426,14.2920382 17.8899327,14.2920382 L14.3558639,14.2920382 L14.3558639,19.9159867 C14.3558639,20.5147722 13.8286493,21 13.1783063,21 L10.8216234,21 C10.1713662,21 9.64402275,20.5146932 9.64402275,19.9160262 L9.64402275,14.2920382 L6.11003987,14.2920382 C5.45946062,14.2920382 5.30485223,13.9483821 5.76459747,13.5245165 L11.5839501,8.15887798 C11.8136724,7.94705384 12.1862357,7.94701433 12.4160224,8.15889774 Z M18.8573542,3 C19.488,3 20,3.44772665 20,4 C20,4.55240091 19.4884375,5 18.8573542,5 L5.14264583,5 C4.51195833,5 4,4.55227335 4,4 C4,3.44759909 4.5115625,3 5.14264583,3 L18.8573542,3 Z" id="形状结合" fill="#FFFFFF"></path>
                <rect id="矩形" fill="#D8D8D8" opacity="0" x="0" y="0" width="24" height="24"></rect>
            </g>
        </g>
    </g>
</svg>
