<svg xmlns="http://www.w3.org/2000/svg"  viewBox="0 0 1024 1024">
  <path fill="#333" fill-rule="evenodd" d="M529.750291,348.11297 L778.041754,577.046036 C797.663965,595.139397 791.058178,609.793629 763.303795,609.793629 L612.516861,609.793629 L612.516861,849.748767 C612.516861,875.296947 590.02237,896 562.2744,896 L461.722597,896 C433.978292,896 411.478304,875.293575 411.478304,849.750453 L411.478304,609.793629 L260.695034,609.793629 C232.936987,609.793629 226.340362,595.130968 245.956159,577.046036 L494.247622,348.11297 C504.050024,339.074297 519.946057,339.072612 529.750291,348.11297 Z M804.580444,128 C831.488,128 853.333333,147.103004 853.333333,170.666667 C853.333333,194.235772 831.506667,213.333333 804.580444,213.333333 L219.419556,213.333333 C192.510222,213.333333 170.666667,194.23033 170.666667,170.666667 C170.666667,147.097561 192.493333,128 219.419556,128 L804.580444,128 Z"/>
</svg>
