<svg xmlns="http://www.w3.org/2000/svg" viewBox="0 0 1024 1024"><path d="M810.667 469.333c0-72.533-55.467-128-128-128-72.534 0-128 55.467-128 128 0 55.467 34.133 102.4 85.333 119.467V640c0 46.933-38.4 85.333-85.333 85.333H460.8c-12.8-38.4-42.667-64-81.067-76.8V375.467c55.467-17.067 89.6-64 89.6-119.467 0-72.533-55.466-128-128-128-72.533 0-128 55.467-128 128 0 55.467 38.4 102.4 85.334 119.467v273.066c-51.2 17.067-85.334 64-85.334 119.467 0 72.533 55.467 128 128 128 55.467 0 102.4-34.133 119.467-85.333h93.867c93.866 0 170.666-76.8 170.666-170.667v-51.2c51.2-17.067 85.334-64 85.334-119.467zm-469.334-256C366.933 213.333 384 230.4 384 256s-17.067 42.667-42.667 42.667S298.667 281.6 298.667 256s21.333-42.667 42.666-42.667zm0 597.334c-25.6 0-42.666-17.067-42.666-42.667s17.066-42.667 42.666-42.667C366.933 725.333 384 742.4 384 768s-17.067 42.667-42.667 42.667zM682.667 512c-25.6 0-42.667-17.067-42.667-42.667s17.067-42.666 42.667-42.666 42.666 17.066 42.666 42.666c0 25.6-17.066 42.667-42.666 42.667z" fill="currentColor" fill-rule="evenodd"/></svg>