<svg width="16px" height="16px" viewBox="0 0 16 16" version="1.1" xmlns="http://www.w3.org/2000/svg">
    <title>commits</title>
    <g id="Code页面" stroke="none" stroke-width="1" fill="none" fill-rule="evenodd">
        <g id="5.Pull-Requests—提交记录" transform="translate(-334.000000, -209.000000)">
            <g id="导航/Tabs标签页/亮色/2" transform="translate(88.000000, 194.000000)">
                <g id="导航/Tabs标签页/亮色/带图标-可选备份" transform="translate(246.000000, 0.000000)">
                    <g id="bitbucket/builds" transform="translate(0.000000, 15.000000)">
                        <rect id="矩形" x="0" y="0" width="16" height="16"></rect>
                        <rect id="矩形" fill="#2E405E" opacity="0" x="0" y="0" width="16" height="16"></rect>
                        <path d="M10.6666667,8 C10.6666667,6.73333333 9.8,5.73333333 8.66666667,5.4 L8.66666667,2.66666667 C8.66666667,2.26666667 8.4,2 8,2 C7.6,2 7.33333333,2.26666667 7.33333333,2.66666667 L7.33333333,5.4 C6.2,5.66666667 5.33333333,6.73333333 5.33333333,8 C5.33333333,9.26666667 6.2,10.2666667 7.33333333,10.6 L7.33333333,13.3333333 C7.33333333,13.7333333 7.6,14 8,14 C8.4,14 8.66666667,13.7333333 8.66666667,13.3333333 L8.66666667,10.6 C9.8,10.2666667 10.6666667,9.26666667 10.6666667,8 Z M8,9.33333333 C7.26666667,9.33333333 6.66666667,8.73333333 6.66666667,8 C6.66666667,7.26666667 7.26666667,6.66666667 8,6.66666667 L8,6.66666667 L8,6.66666667 C8.73333333,6.66666667 9.33333333,7.26666667 9.33333333,8 C9.33333333,8.73333333 8.73333333,9.33333333 8,9.33333333 Z" id="Shape" fill="#083FBF" transform="translate(8.000000, 8.000000) rotate(90.000000) translate(-8.000000, -8.000000) "></path>
                    </g>
                </g>
            </g>
        </g>
    </g>
</svg>