<?xml version="1.0" standalone="no"?><!DOCTYPE svg PUBLIC "-//W3C//DTD SVG 1.1//EN" "http://www.w3.org/Graphics/SVG/1.1/DTD/svg11.dtd"><svg t="1597742905510" class="icon" viewBox="0 0 1024 1024" version="1.1" xmlns="http://www.w3.org/2000/svg" p-id="8658" xmlns:xlink="http://www.w3.org/1999/xlink" width="200" height="200"><defs><style type="text/css"></style></defs><path d="M730.944 128A165.12 165.12 0 0 1 896 293.056v437.888A165.12 165.12 0 0 1 730.944 896H293.12A165.12 165.12 0 0 1 128 730.944V293.12A165.12 165.12 0 0 1 293.056 128zM637.76 363.52L457.152 544.128 386.24 473.216a54.848 54.848 0 0 0-77.632 77.568l109.76 109.696a54.848 54.848 0 0 0 77.568 0l219.456-219.392A54.848 54.848 0 0 0 637.76 363.52z" p-id="8659"></path></svg>