<svg xmlns="http://www.w3.org/2000/svg"  viewBox="0 0 1024 1024">
  <path fill="#333" d="M730.960629,128 C821.158552,128 894.519675,200.526444 895.977878,290.31333 L896,293.039371 L896,730.960629 C896,821.158552 823.473556,894.519675 733.68667,895.977878 L730.960629,896 L293.039371,896 C202.841448,896 129.480325,823.473556 128.022122,733.68667 L128,730.960629 L128,293.039371 C128,202.841448 200.526444,129.480325 290.31333,128.022122 L293.039371,128 L730.960629,128 Z M637.781571,363.495857 L457.142857,544.13457 L386.218429,473.210142 C364.795382,451.787095 330.061761,451.787095 308.638714,473.210142 C287.215667,494.633189 287.215667,529.366811 308.638714,550.789858 L418.352999,660.504143 C439.776046,681.92719 474.509668,681.92719 495.932715,660.504143 L715.361286,441.075572 C736.784333,419.652525 736.784333,384.918903 715.361286,363.495857 C693.938239,342.07281 659.204618,342.07281 637.781571,363.495857 Z"/>
</svg>
