<?xml version="1.0" standalone="no"?><!DOCTYPE svg PUBLIC "-//W3C//DTD SVG 1.1//EN" "http://www.w3.org/Graphics/SVG/1.1/DTD/svg11.dtd"><svg t="1597911478193" class="icon" viewBox="0 0 1024 1024" version="1.1" xmlns="http://www.w3.org/2000/svg" p-id="14292" width="16" height="16" xmlns:xlink="http://www.w3.org/1999/xlink"><defs><style type="text/css"></style></defs><path d="M512 64a448 448 0 1 1 0 896A448 448 0 0 1 512 64z m240 271.872a55.04 55.04 0 0 0-77.44 0l-240 237.44L349.44 488.96a55.04 55.04 0 0 0-77.44 0 53.696 53.696 0 0 0 0 76.544l123.904 122.56a54.912 54.912 0 0 0 77.44 0l278.592-275.648a53.696 53.696 0 0 0 0-76.608z" p-id="14293"></path></svg>