<?xml version="1.0" encoding="UTF-8"?>
<svg width="14px" height="14px" viewBox="0 0 14 14" version="1.1" xmlns="http://www.w3.org/2000/svg" xmlns:xlink="http://www.w3.org/1999/xlink">
    <title>进度条/报错</title>
    <g id="进度条/报错" stroke="none" stroke-width="1" fill="none" fill-rule="evenodd">
        <path d="M7,0 C10.8659932,0 14,3.13400675 14,7 C14,10.8659932 10.8659932,14 7,14 C3.13400675,14 0,10.8659932 0,7 C0,3.13400675 3.13400675,0 7,0 Z M7,1 C3.6862915,1 1,3.6862915 1,7 C1,10.3137085 3.6862915,13 7,13 C10.3137085,13 13,10.3137085 13,7 C13,3.6862915 10.3137085,1 7,1 Z M9.86396103,3.5 L10.5710678,4.20710678 L7.74334779,7.03624101 L10.5710678,9.86396103 L9.86396103,10.5710678 L7.03553391,7.74264069 L4.20710678,10.5710678 L3.5,9.86396103 L6.32842712,7.03553391 L3.5,4.20710678 L4.20710678,3.5 L7.03624101,6.32913423 L9.86396103,3.5 Z" id="形状结合" fill="#D0021B" fill-rule="nonzero"></path>
    </g>
</svg>