<?xml version="1.0" standalone="no"?><!DOCTYPE svg PUBLIC "-//W3C//DTD SVG 1.1//EN" "http://www.w3.org/Graphics/SVG/1.1/DTD/svg11.dtd"><svg t="1597911424041" class="icon" viewBox="0 0 1024 1024" version="1.1" xmlns="http://www.w3.org/2000/svg" p-id="14107" width="16" height="16" xmlns:xlink="http://www.w3.org/1999/xlink"><defs><style type="text/css"></style></defs><path d="M512 64a448 448 0 1 1 0 896A448 448 0 0 1 512 64zM405.568 334.72A50.112 50.112 0 1 0 334.72 405.632L441.024 512 334.72 618.368a50.176 50.176 0 0 0 70.912 70.912L512 582.912l106.368 106.368a49.984 49.984 0 0 0 70.912 0 50.112 50.112 0 0 0 0-70.912L582.912 512l106.368-106.368A50.112 50.112 0 1 0 618.368 334.72L512 441.088z" p-id="14108"></path></svg>