<?xml version="1.0" standalone="no"?><!DOCTYPE svg PUBLIC "-//W3C//DTD SVG 1.1//EN" "http://www.w3.org/Graphics/SVG/1.1/DTD/svg11.dtd"><svg t="1597914423304" class="icon" viewBox="0 0 1024 1024" version="1.1" xmlns="http://www.w3.org/2000/svg" p-id="14662" width="16" height="16" xmlns:xlink="http://www.w3.org/1999/xlink"><defs><style type="text/css"></style></defs><path d="M224.256 171.648L512.064 459.52l288.512-288.576a37.12 37.12 0 0 1 55.872 48.768l-4.032 4.544-287.808 287.808 288.512 288.512a37.12 37.12 0 0 1 3.328 48.704l-4.032 4.608a36.992 36.992 0 0 1-48 2.56l-4.608-4.032L512 564.608 223.488 853.12a37.12 37.12 0 0 1-48.704 3.328l-4.608-4.032a36.992 36.992 0 0 1-2.56-48l4.032-4.608L459.52 512 170.88 223.488a37.12 37.12 0 0 1-3.328-48.704l4.032-4.608a36.992 36.992 0 0 1 48-2.56l4.608 4.032z" p-id="14663"></path></svg>