<?xml version="1.0" standalone="no"?><!DOCTYPE svg PUBLIC "-//W3C//DTD SVG 1.1//EN" "http://www.w3.org/Graphics/SVG/1.1/DTD/svg11.dtd"><svg t="1597655587003" class="icon" viewBox="0 0 1024 1024" version="1.1" xmlns="http://www.w3.org/2000/svg" p-id="8831" xmlns:xlink="http://www.w3.org/1999/xlink" width="200" height="200"><defs><style type="text/css"></style></defs><path d="M943.104 472.064L551.872 80.896a57.664 57.664 0 0 0-81.6 0L389.12 162.176l103.04 103.04a68.48 68.48 0 0 1 86.784 87.36l99.328 99.264a68.48 68.48 0 0 1 70.912 113.408 68.672 68.672 0 0 1-112-74.688L544.384 397.952v243.776a68.672 68.672 0 1 1-56.448-1.984V393.6a68.672 68.672 0 0 1-37.248-90.048L349.056 202.112l-268.16 268.224a57.728 57.728 0 0 0 0 81.664l391.168 391.168a57.728 57.728 0 0 0 81.6 0l389.376-389.376a57.728 57.728 0 0 0 0-81.6" p-id="8832" fill="#DE350B"></path></svg>