<?xml version="1.0" standalone="no"?><!DOCTYPE svg PUBLIC "-//W3C//DTD SVG 1.1//EN" "http://www.w3.org/Graphics/SVG/1.1/DTD/svg11.dtd"><svg t="1598446311181" class="icon" viewBox="0 0 1024 1024" version="1.1" xmlns="http://www.w3.org/2000/svg" p-id="13760" width="16" height="16" xmlns:xlink="http://www.w3.org/1999/xlink"><defs><style type="text/css"></style></defs><path d="M789.376 896c7.808 0 14.208-6.4 14.208-14.272v-231.104a32 32 0 1 1 64 0v231.04c0 43.264-35.072 78.272-78.208 78.272H627.584a32 32 0 0 1-32-32v-245.312H428.48v245.312a32 32 0 0 1-32 32H234.688a78.208 78.208 0 0 1-78.208-78.208V567.04h-60.416a32 32 0 0 1-23.232-54.016l416-439.04a32 32 0 0 1 46.4 0l416 439.04a32 32 0 1 1-46.464 43.968L512 142.528 170.432 503.04h18.048a32 32 0 0 1 32 32v346.624c0 7.872 6.4 14.208 14.208 14.208h129.792v-222.208c0-30.4 24.704-55.04 55.104-55.04h184.896c30.4 0 55.04 24.64 55.04 55.04V896h129.856z" p-id="13761"></path></svg>