<svg xmlns="http://www.w3.org/2000/svg"  viewBox="0 0 1024 1024">
  <path fill="#333" fill-rule="evenodd" d="M512,64 C759.445333,64 960,264.554667 960,512 C960,759.445333 759.445333,960 512,960 C264.554667,960 64,759.445333 64,512 C64,264.554667 264.554667,64 512,64 Z M512,412.444444 L505.205187,412.900188 C481.032001,416.172899 462.59412,436.677672 462.227779,461.611136 L462.222222,462.368038 L462.222222,710.965296 C462.222222,737.755864 484.064996,760.431221 511.176833,760.882049 L512,760.888889 L518.794813,760.433145 C542.967999,757.160434 561.40588,736.655661 561.772221,711.722197 L561.777778,710.965296 L561.777778,462.368038 C561.777778,435.577469 539.935004,412.902113 512.823167,412.451285 L512,412.444444 Z M512,263.111111 C484.508492,263.111111 462.222222,285.397381 462.222222,312.888889 C462.222222,340.380396 484.508492,362.666667 512,362.666667 C539.491508,362.666667 561.777778,340.380396 561.777778,312.888889 C561.777778,285.397381 539.491508,263.111111 512,263.111111 Z"/>
</svg>
