<svg xmlns="http://www.w3.org/2000/svg"  viewBox="0 0 1024 1024">
  <path fill="#333" fill-rule="evenodd" d="M474.666667,64 C701.471604,64 885.333333,247.861729 885.333333,474.666667 C885.333333,575.493481 848.997224,667.833543 788.70552,739.306336 L788.696903,739.296692 C792.497288,741.011334 796.069491,743.394828 799.235493,746.447173 L799.731986,746.93468 L949.06532,896.268014 C963.644893,910.847587 963.644893,934.485746 949.06532,949.06532 C934.631542,963.499098 911.319444,963.643435 896.7081,949.498333 L896.268014,949.06532 L746.93468,799.731986 C743.647574,796.444881 741.101578,792.697308 739.296692,788.696903 L739.306336,788.70552 C667.833543,848.997224 575.493481,885.333333 474.666667,885.333333 C247.861729,885.333333 64,701.471604 64,474.666667 C64,247.861729 247.861729,64 474.666667,64 Z M474.666667,138.666667 C289.098991,138.666667 138.666667,289.098991 138.666667,474.666667 C138.666667,660.234343 289.098991,810.666667 474.666667,810.666667 C660.234343,810.666667 810.666667,660.234343 810.666667,474.666667 C810.666667,289.098991 660.234343,138.666667 474.666667,138.666667 Z"/>
</svg>
