<svg xmlns="http://www.w3.org/2000/svg"  viewBox="0 0 1024 1024">
  <path fill="#333" fill-rule="evenodd" d="M512,960 C759.445333,960 960,759.445333 960,512 C960,264.554667 759.445333,64 512,64 C264.554667,64 64,264.554667 64,512 C64,759.445333 264.554667,960 512,960 Z M512,611.555556 L505.205187,611.099812 C483.007587,608.094568 465.646148,590.558792 462.672974,568.406298 L462.222222,561.631962 L462.222222,313.034704 C462.222222,288.228623 480.94888,266.950671 505.24545,263.576611 L512,263.111111 L518.794813,263.566855 C540.992413,266.572099 558.353852,284.107875 561.327026,306.260369 L561.777778,313.034704 L561.777778,561.631962 C561.777778,586.438044 543.05112,607.715995 518.75455,611.090056 L512,611.555556 Z M512,760.888889 C484.508492,760.888889 462.222222,738.602619 462.222222,711.111111 C462.222222,683.619604 484.508492,661.333333 512,661.333333 C539.491508,661.333333 561.777778,683.619604 561.777778,711.111111 C561.777778,738.602619 539.491508,760.888889 512,760.888889 Z"/>
</svg>
