<?xml version="1.0" standalone="no"?><!DOCTYPE svg PUBLIC "-//W3C//DTD SVG 1.1//EN" "http://www.w3.org/Graphics/SVG/1.1/DTD/svg11.dtd"><svg t="1597911514081" class="icon" viewBox="0 0 1024 1024" version="1.1" xmlns="http://www.w3.org/2000/svg" p-id="14477" width="16" height="16" xmlns:xlink="http://www.w3.org/1999/xlink"><defs><style type="text/css"></style></defs><path d="M512 960a448 448 0 0 0 448-448 448 448 0 0 0-448-448 448 448 0 0 0-448 448 448 448 0 0 0 448 448z m0-348.416l-6.784-0.512a49.728 49.728 0 0 1-43.008-49.472V313.024c0-27.072 22.272-49.92 49.792-49.92l6.784 0.448a49.728 49.728 0 0 1 43.008 49.472v248.576c0 27.072-22.272 49.92-49.792 49.92z m0 149.312a49.792 49.792 0 1 1 0-99.584 49.792 49.792 0 0 1 0 99.584z" p-id="14478"></path></svg>