<?xml version="1.0" standalone="no"?><!DOCTYPE svg PUBLIC "-//W3C//DTD SVG 1.1//EN" "http://www.w3.org/Graphics/SVG/1.1/DTD/svg11.dtd"><svg t="1604898435956" class="icon" viewBox="0 0 1024 1024" version="1.1" xmlns="http://www.w3.org/2000/svg" p-id="9816" xmlns:xlink="http://www.w3.org/1999/xlink" width="16" height="16"><defs><style type="text/css"></style></defs><path d="M132.608 507.008l2.176 2.56 283.328 283.328a12.8 12.8 0 0 0 16.32 1.472l2.368-1.984 19.584-19.648a12.8 12.8 0 0 0 1.472-16.32l-1.984-2.368L236.8 535.04h628.16a28.48 28.48 0 0 0 0-56.96h-637.44l218.752-218.624a12.8 12.8 0 0 0 1.472-16.32l-1.984-2.304-21.632-21.632a12.8 12.8 0 0 0-16.32-1.472l-2.368 1.984-271.168 271.232a12.8 12.8 0 0 0-2.88 13.696l1.28 2.368z" p-id="9817"></path></svg>