<?xml version="1.0" encoding="UTF-8"?>
<svg width="1024px" height="1024px" viewBox="0 0 1024 1024" version="1.1" xmlns="http://www.w3.org/2000/svg" xmlns:xlink="http://www.w3.org/1999/xlink">
    <title>进度条/报错</title>
    <g id="进度条/报错" stroke="none" stroke-width="1" fill="none" fill-rule="evenodd">
        <path d="M512,64 C759.423568,64 960,264.576432 960,512 C960,759.423568 759.423568,960 512,960 C264.576432,960 64,759.423568 64,512 C64,264.576432 264.576432,64 512,64 Z M512,128 C299.922656,128 128,299.922656 128,512 C128,724.077344 299.922656,896 512,896 C724.077344,896 896,724.077344 896,512 C896,299.922656 724.077344,128 512,128 Z M695.293506,288 L740.54834,333.254834 L559.574259,514.319425 L740.54834,695.293506 L695.293506,740.54834 L514.27417,559.529004 L333.254834,740.54834 L288,695.293506 L469.019336,514.27417 L288,333.254834 L333.254834,288 L514.319425,469.064591 L695.293506,288 Z" id="形状结合" fill="#979797" fill-rule="nonzero"></path>
    </g>
</svg>