<svg xmlns="http://www.w3.org/2000/svg"  viewBox="0 0 1024 1024">
  <path fill="#333" fill-rule="evenodd" d="M943.106784,472.092111 L551.881022,80.8986116 C529.37089,58.3671295 492.831844,58.3671295 470.293402,80.8986116 L389.059692,162.143449 L492.102007,265.189902 C516.056868,257.101597 543.513847,262.524631 562.599718,281.615044 C581.784682,300.824376 587.168804,328.516832 578.877919,352.552877 L678.1924,451.871348 C702.219617,443.591138 729.941632,448.940714 749.127385,468.161213 C775.950475,494.977515 775.950475,538.430526 749.127385,565.253907 C722.300365,592.08594 678.849096,592.08594 652.007131,565.253907 C631.838301,545.068537 626.849772,515.43344 637.065131,490.582586 L544.443447,397.95718 L544.43558,641.699556 C550.975014,644.936925 557.146389,649.257764 562.595784,654.683788 C589.411013,681.496942 589.411013,724.942091 562.595784,751.800077 C535.772694,778.612446 492.301768,778.612446 465.506991,751.800077 C438.687834,724.944448 438.687834,681.499303 465.506991,654.683788 C472.134904,648.067406 479.804093,643.059407 487.987235,639.70265 L487.987235,393.695168 C479.800161,390.352568 472.140016,385.381926 465.502273,378.712456 C445.187947,358.413044 440.295364,328.597054 450.713632,303.650249 L349.134138,202.050945 L80.9032417,470.284747 C58.3655861,492.833532 58.3655861,529.374049 80.9032417,551.9071 L472.105412,943.101385 C494.628124,965.632869 531.154589,965.632869 553.708759,943.101385 L943.102066,553.755365 C965.632645,531.212869 965.632645,494.661344 943.102066,472.125144"/>
</svg>
