<svg width="1024px" height="1024px" xmlns="http://www.w3.org/2000/svg" viewBox="0 0 1024 1024"><g fill="none" fill-rule="evenodd"><path d="M0 0h1024v1024H0z"></path><path d="M472.5 132C657.24 132 807 281.76 807 466.5c0 81.178-28.917 155.602-77.013 213.533l156.5 156.5-55.154 55.154L673.525 733.88C617.564 776.02 547.949 801 472.5 801 287.76 801 138 651.24 138 466.5S287.76 132 472.5 132zm0 78C330.839 210 216 324.839 216 466.5S330.839 723 472.5 723 729 608.161 729 466.5 614.161 210 472.5 210z" fill="currentColor" fill-rule="nonzero"></path></g></svg>