<svg xmlns="http://www.w3.org/2000/svg" xmlns:xlink="http://www.w3.org/1999/xlink" width="1024px" height="1024px" viewBox="0 0 1024 1024" version="1.1">
    <title>输入框/搜索</title>
    <g id="输入框/搜索" stroke="none" stroke-width="1" fill="none" fill-rule="evenodd">
        <rect id="矩形" fill-opacity="0" fill="#D8D8D8" x="0" y="0" width="1024" height="1024"/>
        <path d="M448,704 C306.816,704 192,589.184 192,448 C192,306.816 306.816,192 448,192 C589.184,192 704,306.816 704,448 C704,589.184 589.184,704 448,704 L448,704 Z M960,869.504 L760.768,670.272 C805.44,607.488 832,530.88 832,448 C832,235.968 660.032,64 448,64 C235.968,64 64,235.968 64,448 C64,660.032 235.968,832 448,832 C530.88,832 607.488,805.44 670.272,760.768 L869.504,960 L960,869.504 Z" id="Fill-1" fill="#999999" fill-rule="nonzero"/>
    </g>
</svg>