<svg xmlns="http://www.w3.org/2000/svg"  viewBox="0 0 1024 1024">
  <path fill="#333" fill-rule="evenodd" d="M748.390636,653.846988 C774.536455,679.994514 774.536455,722.258547 748.390636,748.406073 C735.351161,761.4464 718.232671,768 701.11418,768 C683.99569,768 666.8772,761.4464 653.837725,748.406073 L512.008359,606.567445 L370.112123,748.406073 C357.072648,761.4464 339.954158,768 322.835668,768 C305.717178,768 288.665557,761.4464 275.559212,748.406073 C249.480263,722.258547 249.480263,679.994514 275.559212,653.846988 L417.388579,512.008359 L275.559212,370.169731 C249.480263,344.022204 249.480263,301.691298 275.559212,275.610645 C301.705032,249.463118 344.033173,249.463118 370.112123,275.610645 L512.008359,417.449273 L653.837725,275.610645 C679.983544,249.463118 722.244817,249.463118 748.390636,275.610645 C774.536455,301.691298 774.536455,344.022204 748.390636,370.169731 L606.561269,512.008359 L748.390636,653.846988 Z"/>
</svg>
