<?xml version="1.0" encoding="UTF-8"?>
<svg width="560px" height="309px" viewBox="0 0 560 309" version="1.1" xmlns="http://www.w3.org/2000/svg" xmlns:xlink="http://www.w3.org/1999/xlink">
    <title>缺省页/其他</title>
    <g id="缺省页/其他" stroke="none" stroke-width="1" fill="none" fill-rule="evenodd">
        <g id="Group-26">
            <line x1="0" y1="286" x2="560" y2="286" id="Line" stroke="#EBEBEB" stroke-linecap="square"></line>
            <g id="Group-17" transform="translate(42.000000, 29.000000)" stroke="#CCCCCC">
                <line x1="6.5" y1="77.5" x2="48.5" y2="19.5" id="Line-3" stroke-width="3" stroke-linecap="square"></line>
                <line x1="37.5" y1="119.5" x2="5.5" y2="78.25" id="Line-3-Copy" stroke-width="3" stroke-linecap="square"></line>
                <path d="M16.5,120 L59.5,120 C61.4329966,120 63,121.567003 63,123.5 L63,126 L63,126 L13,126 L13,123.5 C13,121.567003 14.5670034,120 16.5,120 Z" id="Rectangle-6" fill="#F5F5F5"></path>
                <circle id="Path" fill="#F5F5F5" cx="6.5" cy="78.5" r="6.5"></circle>
                <g id="Group-15" transform="translate(57.748737, 24.748737) rotate(-45.000000) translate(-57.748737, -24.748737) translate(36.748737, 10.748737)">
                    <path d="M21,0 C24.3137085,0 27,2.77786962 27,6.20454545 C27,6.30336909 26.9977658,6.40165311 26.9933467,6.49934643 L15.0066533,6.49934643 C15.0022342,6.40165311 15,6.30336909 15,6.20454545 C15,2.77786962 17.6862915,0 21,0 Z" id="Combined-Shape" fill="#F5F5F5"></path>
                    <path d="M21,6 C32.5979797,6 42,15.4020203 42,27 C42,27.3352951 41.992142,27.6687549 41.9766002,28.0002053 L0.0233998299,28.0002053 C0.00785798114,27.6687549 0,27.3352951 0,27 C0,15.4020203 9.40202025,6 21,6 Z" id="Combined-Shape" fill="#FFFFFF"></path>
                    <line x1="0.5" y1="24.5" x2="41.5" y2="24.5" id="Line-2" stroke-linecap="square"></line>
                </g>
            </g>
            <g id="Group-18" transform="translate(126.000000, 127.000000)">
                <path d="M24.5,0.5 L24.5,23 C24.5,24.2426407 23.9963203,25.3676407 23.1819805,26.1819805 C22.3676407,26.9963203 21.2426407,27.5 20,27.5 L20,27.5 L5,27.5 C3.75735931,27.5 2.63235931,26.9963203 1.81801948,26.1819805 C1.00367966,25.3676407 0.5,24.2426407 0.5,23 L0.5,23 L0.5,0.5 L24.5,0.5 Z" id="Rectangle-7" stroke="#CCCCCC" fill="#F5F5F5"></path>
                <rect id="Rectangle-8" fill="#FFFFFF" x="1" y="1" width="23" height="6"></rect>
                <rect id="Rectangle-8-Copy" stroke="#CCCCCC" fill="#EBEBEB" x="3.5" y="12.5" width="6" height="6"></rect>
                <rect id="Rectangle-9" stroke="#CCCCCC" fill="#D8D8D8" x="6.5" y="1.5" width="1" height="10"></rect>
                <path d="M35,9 L35,13 C35,13.8284271 34.6642136,14.5784271 34.1213203,15.1213203 C33.5784271,15.6642136 32.8284271,16 32,16 L32,16 L24,16 C23.1715729,16 22.4215729,15.6642136 21.8786797,15.1213203 C21.3357864,14.5784271 21,13.8284271 21,13 L21,13 L21,9 L35,9 Z" id="Rectangle-7-Copy" stroke="#CCCCCC" transform="translate(28.000000, 12.500000) rotate(-90.000000) translate(-28.000000, -12.500000) "></path>
            </g>
            <path d="M403,143.5 C407.023074,143.5 410.668353,144.721526 413.30585,146.707406 C415.88455,148.649015 417.5,151.325181 417.5,154.294118 L417.5,154.294118 L388.502577,154.499393 C388.5,151.325181 390.11545,148.649015 392.69415,146.707406 C395.331647,144.721526 398.976926,143.5 403,143.5 Z" id="Combined-Shape" stroke="#CCCCCC" fill="#F5F5F5"></path>
            <path d="M139.5,237.5 L139.5,268.5 L110.5,268.5 L110.5,237.5 L139.5,237.5 Z" id="Rectangle" stroke="#CCCCCC" fill="#FFFFFF"></path>
            <circle id="Oval" fill="#CCCCCC" cx="125" cy="253" r="9"></circle>
            <rect id="Rectangle-53" stroke="#CCCCCC" fill="#CCCCCC" x="30.5" y="155.5" width="499" height="4"></rect>
            <path d="M263.365913,160 C265.726416,201.138021 261.496372,229.528646 250.675781,245.171875" id="Path-6" stroke="#CCCCCC" stroke-width="2"></path>
            <rect id="Rectangle-53-Copy-2" stroke="#CCCCCC" fill="#F5F5F5" x="90.5" y="197.5" width="379" height="9"></rect>
            <path d="M119.261484,159.5 L59.6614835,308.5 L50.6508058,308.5 L90.3841392,159.5 L119.261484,159.5 Z" id="Rectangle-53-Copy" stroke="#CCCCCC" fill="#F5F5F5"></path>
            <path d="M509.261484,159.5 L449.661484,308.5 L440.650806,308.5 L480.384139,159.5 L509.261484,159.5 Z" id="Rectangle-53-Copy" stroke="#CCCCCC" fill="#F5F5F5" transform="translate(475.000000, 234.000000) scale(-1, 1) translate(-475.000000, -234.000000) "></path>
            <rect id="Rectangle-12" stroke="#CCCCCC" fill="#FFFFFF" x="185.5" y="0.5" width="189" height="129" rx="6"></rect>
            <path d="M374.5,110.5 L374.5,124 C374.5,125.518783 373.884392,126.893783 372.889087,127.889087 C371.893783,128.884392 370.518783,129.5 369,129.5 L369,129.5 L191,129.5 C189.481217,129.5 188.106217,128.884392 187.110913,127.889087 C186.115608,126.893783 185.5,125.518783 185.5,124 L185.5,124 L185.5,110.5 L374.5,110.5 Z" id="Rectangle-12" stroke="#CCCCCC" fill="#F5F5F5"></path>
            <rect id="Rectangle-13" fill="#333333" x="193" y="8" width="174" height="95"></rect>
            <path d="M301.329929,129.5 L304.421015,150.5 L255.578985,150.5 L258.670071,129.5 L301.329929,129.5 Z" id="Rectangle-14" stroke="#CCCCCC" fill="#F5F5F5"></path>
            <rect id="Rectangle-14-Copy" stroke="#CCCCCC" fill="#F5F5F5" x="239.5" y="150.5" width="81" height="4"></rect>
            <path d="M125,262 C125,266.506152 125,273.67496 125,283.506423 C125,298.253619 146.156015,298.094878 153.911539,298.094878 C161.667062,298.094878 200.993566,298.157911 208.914332,298.157911 C216.835097,298.157911 213.756455,305.179003 208.914332,305.179003 C204.072209,305.179003 194.511216,301.208903 200.228308,295.472022 C204.039702,291.647434 210.963599,291.647434 221,295.472022" id="Path-8" stroke="#CCCCCC" stroke-width="2"></path>
            <rect id="Rectangle-56" stroke="#CCCCCC" fill="#F5F5F5" x="460.5" y="143.5" width="59" height="11"></rect>
            <rect id="Rectangle-56" stroke="#CCCCCC" fill="#FFFFFF" x="470.5" y="138.5" width="59" height="5"></rect>
            <rect id="Rectangle-56" stroke="#CCCCCC" fill="#F5F5F5" x="462.5" y="133.5" width="59" height="5"></rect>
            <g id="Group-21" transform="translate(481.000000, 90.000000)">
                <rect id="Rectangle-56-Copy" stroke="#CCCCCC" fill="#FFFFFF" x="0.5" y="3.5" width="23" height="2"></rect>
                <rect id="Rectangle-56-Copy" stroke="#CCCCCC" fill="#FFFFFF" x="1.5" y="0.5" width="21" height="3"></rect>
                <g id="Group-20" transform="translate(1.000000, 5.000000)" stroke="#CCCCCC">
                    <path d="M21.4576022,0.5 L19.0946392,29.5 L2.90536077,29.5 L0.542397803,0.5 L21.4576022,0.5 Z" id="Rectangle-56-Copy" fill="#F5F5F5"></path>
                    <path d="M20.5128198,8.6227175 L19.4968569,21.1597175 L2.21516581,21.1597175 L1.20105523,8.6227175 L20.5128198,8.6227175 Z" id="Combined-Shape" fill="#FFFFFF"></path>
                </g>
                <rect id="Rectangle-11" fill="#CCCCCC" x="7" y="18" width="10" height="4"></rect>
            </g>
            <rect id="Rectangle-56" stroke="#CCCCCC" fill="#FFFFFF" x="465.5" y="124.5" width="53" height="9"></rect>
            <rect id="Rectangle-56" stroke="#CCCCCC" fill="#F5F5F5" x="471.5" y="124.5" width="41" height="9"></rect>
            <g id="Group-19" transform="translate(422.000000, 50.000000)">
                <rect id="Rectangle-56-Copy-2" stroke="#CCCCCC" fill="#F5F5F5" x="0.5" y="0.5" width="23" height="23"></rect>
                <path d="M31.5,7.5 L31.5,24.9241373 L25.8376101,30.5 L8.5,30.5 L8.5,7.5 L31.5,7.5 Z" id="Rectangle-56-Copy-3" stroke="#CCCCCC" fill="#FFFFFF"></path>
                <polygon id="Rectangle-57" fill="#CCCCCC" points="25 24 32 24 25 31"></polygon>
                <text id="bug" font-family="CenturyGothic, Century Gothic" font-size="8" font-weight="normal" fill="#CCCCCC">
                    <tspan x="13" y="19">bug</tspan>
                </text>
            </g>
            <text id="Error…" font-family="AndaleMono, Andale Mono" font-size="20" font-weight="normal" fill="#FFFFFF">
                <tspan x="207" y="61">Error…</tspan>
            </text>
        </g>
    </g>
</svg>